<?xml version="1.0" encoding="UTF-8"?>
<svg xmlns="http://www.w3.org/2000/svg" version="1.1" width="264" height="264" viewBox="0 0 264 264"><rect x="0" y="0" width="264" height="264" fill="#ffffff"/><g transform="scale(8)"><g transform="translate(0,0)"><path fill-rule="evenodd" d="M10 0L10 1L9 1L9 2L8 2L8 3L9 3L9 5L10 5L10 7L11 7L11 8L12 8L12 9L11 9L11 10L10 10L10 9L9 9L9 6L8 6L8 8L4 8L4 9L3 9L3 8L0 8L0 9L1 9L1 11L0 11L0 14L1 14L1 16L0 16L0 17L1 17L1 19L0 19L0 20L1 20L1 21L2 21L2 19L7 19L7 18L8 18L8 20L6 20L6 21L7 21L7 22L6 22L6 23L8 23L8 20L9 20L9 22L10 22L10 21L11 21L11 22L12 22L12 20L14 20L14 22L13 22L13 23L14 23L14 22L15 22L15 21L16 21L16 23L15 23L15 24L16 24L16 26L17 26L17 27L15 27L15 26L14 26L14 25L13 25L13 24L12 24L12 23L10 23L10 26L9 26L9 24L8 24L8 29L10 29L10 30L8 30L8 33L11 33L11 32L12 32L12 33L13 33L13 32L12 32L12 31L11 31L11 32L9 32L9 31L10 31L10 30L12 30L12 28L14 28L14 30L13 30L13 31L14 31L14 30L15 30L15 28L16 28L16 30L17 30L17 31L16 31L16 32L15 32L15 33L22 33L22 31L23 31L23 33L28 33L28 32L30 32L30 31L29 31L29 29L30 29L30 28L29 28L29 27L30 27L30 26L29 26L29 24L25 24L25 23L26 23L26 22L27 22L27 20L26 20L26 19L30 19L30 18L31 18L31 21L32 21L32 22L31 22L31 24L32 24L32 23L33 23L33 20L32 20L32 19L33 19L33 16L32 16L32 15L33 15L33 12L32 12L32 11L33 11L33 9L32 9L32 11L31 11L31 12L32 12L32 14L31 14L31 13L30 13L30 14L29 14L29 16L30 16L30 14L31 14L31 17L30 17L30 18L27 18L27 17L28 17L28 16L27 16L27 15L26 15L26 14L27 14L27 12L26 12L26 10L27 10L27 11L29 11L29 12L30 12L30 11L29 11L29 10L31 10L31 8L30 8L30 9L29 9L29 10L27 10L27 8L25 8L25 6L24 6L24 2L25 2L25 1L24 1L24 0L23 0L23 1L21 1L21 2L23 2L23 3L22 3L22 4L23 4L23 6L22 6L22 7L21 7L21 6L20 6L20 3L18 3L18 4L16 4L16 5L14 5L14 3L12 3L12 2L11 2L11 3L12 3L12 5L10 5L10 3L9 3L9 2L10 2L10 1L11 1L11 0ZM14 0L14 1L13 1L13 2L14 2L14 1L15 1L15 0ZM19 0L19 1L17 1L17 2L20 2L20 0ZM15 2L15 3L16 3L16 2ZM13 5L13 7L12 7L12 6L11 6L11 7L12 7L12 8L13 8L13 9L14 9L14 10L13 10L13 11L14 11L14 10L15 10L15 12L16 12L16 11L17 11L17 10L18 10L18 11L20 11L20 12L21 12L21 11L25 11L25 10L24 10L24 9L23 9L23 8L24 8L24 6L23 6L23 7L22 7L22 9L23 9L23 10L20 10L20 9L17 9L17 7L18 7L18 6L19 6L19 8L20 8L20 6L19 6L19 5L17 5L17 7L16 7L16 6L15 6L15 7L14 7L14 5ZM15 7L15 8L16 8L16 7ZM2 9L2 12L3 12L3 11L4 11L4 14L3 14L3 13L2 13L2 14L3 14L3 15L2 15L2 16L4 16L4 17L6 17L6 18L7 18L7 17L6 17L6 16L8 16L8 18L9 18L9 19L10 19L10 18L9 18L9 17L12 17L12 16L13 16L13 17L14 17L14 18L13 18L13 19L14 19L14 18L15 18L15 19L16 19L16 20L17 20L17 18L18 18L18 19L19 19L19 20L18 20L18 21L17 21L17 22L19 22L19 24L18 24L18 25L17 25L17 26L18 26L18 27L19 27L19 28L18 28L18 29L17 29L17 30L19 30L19 32L20 32L20 31L22 31L22 30L20 30L20 29L19 29L19 28L21 28L21 27L23 27L23 28L22 28L22 29L24 29L24 27L23 27L23 26L24 26L24 24L23 24L23 23L24 23L24 22L25 22L25 21L23 21L23 20L24 20L24 19L26 19L26 17L25 17L25 16L26 16L26 15L24 15L24 12L22 12L22 13L23 13L23 15L24 15L24 16L22 16L22 18L21 18L21 17L19 17L19 15L21 15L21 14L20 14L20 13L19 13L19 12L18 12L18 13L19 13L19 15L18 15L18 14L17 14L17 13L15 13L15 14L14 14L14 12L12 12L12 11L11 11L11 12L12 12L12 14L9 14L9 13L10 13L10 12L9 12L9 13L8 13L8 12L7 12L7 11L10 11L10 10L8 10L8 9L4 9L4 10L3 10L3 9ZM4 10L4 11L7 11L7 10ZM5 12L5 15L4 15L4 16L6 16L6 15L9 15L9 14L8 14L8 13L7 13L7 12ZM6 13L6 14L7 14L7 13ZM13 14L13 15L14 15L14 14ZM16 14L16 15L15 15L15 16L17 16L17 17L16 17L16 18L17 18L17 17L18 17L18 15L17 15L17 14ZM10 15L10 16L12 16L12 15ZM2 17L2 18L3 18L3 17ZM24 17L24 18L25 18L25 17ZM31 17L31 18L32 18L32 17ZM22 18L22 19L21 19L21 20L19 20L19 21L20 21L20 22L21 22L21 23L20 23L20 24L19 24L19 25L20 25L20 26L21 26L21 25L23 25L23 24L22 24L22 22L21 22L21 21L22 21L22 20L23 20L23 18ZM11 19L11 20L12 20L12 19ZM4 20L4 21L3 21L3 22L4 22L4 23L1 23L1 22L0 22L0 23L1 23L1 24L0 24L0 25L1 25L1 24L3 24L3 25L5 25L5 22L4 22L4 21L5 21L5 20ZM28 22L28 23L29 23L29 22ZM6 24L6 25L7 25L7 24ZM11 24L11 25L12 25L12 24ZM25 25L25 28L28 28L28 25ZM31 25L31 28L33 28L33 25ZM13 26L13 27L14 27L14 26ZM26 26L26 27L27 27L27 26ZM9 27L9 28L10 28L10 29L11 29L11 28L12 28L12 27L11 27L11 28L10 28L10 27ZM25 29L25 30L24 30L24 31L25 31L25 32L27 32L27 29ZM32 29L32 31L31 31L31 33L33 33L33 32L32 32L32 31L33 31L33 29ZM0 0L0 7L7 7L7 0ZM1 1L1 6L6 6L6 1ZM2 2L2 5L5 5L5 2ZM26 0L26 7L33 7L33 0ZM27 1L27 6L32 6L32 1ZM28 2L28 5L31 5L31 2ZM0 26L0 33L7 33L7 26ZM1 27L1 32L6 32L6 27ZM2 28L2 31L5 31L5 28Z" fill="#000000"/></g></g></svg>
