<?xml version="1.0" encoding="UTF-8"?>
<svg xmlns="http://www.w3.org/2000/svg" version="1.1" width="264" height="264" viewBox="0 0 264 264"><rect x="0" y="0" width="264" height="264" fill="#ffffff"/><g transform="scale(8)"><g transform="translate(0,0)"><path fill-rule="evenodd" d="M10 0L10 1L9 1L9 2L8 2L8 3L9 3L9 5L10 5L10 7L11 7L11 8L12 8L12 9L11 9L11 10L10 10L10 9L9 9L9 6L8 6L8 8L4 8L4 9L5 9L5 10L3 10L3 8L0 8L0 9L1 9L1 11L0 11L0 12L2 12L2 13L1 13L1 14L3 14L3 12L4 12L4 13L5 13L5 14L6 14L6 15L5 15L5 16L4 16L4 19L3 19L3 17L1 17L1 15L0 15L0 18L2 18L2 19L3 19L3 20L1 20L1 19L0 19L0 20L1 20L1 22L0 22L0 23L1 23L1 24L0 24L0 25L1 25L1 24L2 24L2 25L4 25L4 24L5 24L5 25L8 25L8 29L9 29L9 30L8 30L8 33L9 33L9 30L12 30L12 28L14 28L14 30L13 30L13 31L14 31L14 30L15 30L15 28L16 28L16 30L17 30L17 31L16 31L16 32L15 32L15 33L22 33L22 31L23 31L23 33L28 33L28 32L30 32L30 31L29 31L29 29L30 29L30 28L29 28L29 27L30 27L30 26L29 26L29 24L25 24L25 23L26 23L26 22L27 22L27 20L26 20L26 19L30 19L30 18L31 18L31 21L32 21L32 22L31 22L31 24L32 24L32 23L33 23L33 20L32 20L32 19L33 19L33 16L32 16L32 15L33 15L33 12L32 12L32 11L33 11L33 9L32 9L32 11L31 11L31 12L32 12L32 14L31 14L31 13L30 13L30 14L29 14L29 16L30 16L30 14L31 14L31 17L30 17L30 18L27 18L27 17L28 17L28 16L27 16L27 15L26 15L26 14L27 14L27 12L26 12L26 10L27 10L27 11L29 11L29 12L30 12L30 11L29 11L29 10L31 10L31 8L30 8L30 9L29 9L29 10L27 10L27 8L25 8L25 6L24 6L24 2L25 2L25 1L24 1L24 0L23 0L23 1L21 1L21 2L23 2L23 3L22 3L22 4L23 4L23 6L22 6L22 7L21 7L21 6L20 6L20 3L18 3L18 4L16 4L16 5L14 5L14 3L12 3L12 2L11 2L11 3L12 3L12 5L10 5L10 3L9 3L9 2L10 2L10 1L11 1L11 0ZM14 0L14 1L13 1L13 2L14 2L14 1L15 1L15 0ZM19 0L19 1L17 1L17 2L20 2L20 0ZM15 2L15 3L16 3L16 2ZM13 5L13 7L12 7L12 6L11 6L11 7L12 7L12 8L13 8L13 9L14 9L14 10L13 10L13 11L14 11L14 10L15 10L15 12L16 12L16 11L17 11L17 10L18 10L18 11L20 11L20 12L21 12L21 11L25 11L25 10L24 10L24 9L23 9L23 8L24 8L24 6L23 6L23 7L22 7L22 9L23 9L23 10L20 10L20 9L17 9L17 7L18 7L18 6L19 6L19 8L20 8L20 6L19 6L19 5L16 5L16 6L15 6L15 7L14 7L14 5ZM16 6L16 7L17 7L17 6ZM6 9L6 10L5 10L5 11L4 11L4 12L5 12L5 11L6 11L6 12L7 12L7 13L6 13L6 14L8 14L8 11L6 11L6 10L8 10L8 9ZM9 10L9 11L10 11L10 10ZM11 11L11 12L12 12L12 14L11 14L11 15L12 15L12 16L10 16L10 12L9 12L9 15L8 15L8 16L7 16L7 15L6 15L6 16L5 16L5 18L7 18L7 19L5 19L5 20L3 20L3 22L1 22L1 23L3 23L3 24L4 24L4 23L3 23L3 22L4 22L4 21L5 21L5 20L7 20L7 19L8 19L8 18L9 18L9 19L10 19L10 21L9 21L9 22L8 22L8 23L9 23L9 24L11 24L11 25L10 25L10 27L9 27L9 29L10 29L10 27L11 27L11 28L12 28L12 27L11 27L11 25L12 25L12 24L13 24L13 25L14 25L14 26L13 26L13 27L14 27L14 26L15 26L15 27L17 27L17 26L18 26L18 27L19 27L19 28L18 28L18 29L17 29L17 30L19 30L19 32L20 32L20 31L22 31L22 30L20 30L20 29L19 29L19 28L21 28L21 27L23 27L23 28L22 28L22 29L24 29L24 27L23 27L23 26L24 26L24 24L23 24L23 23L24 23L24 22L25 22L25 21L23 21L23 20L24 20L24 19L26 19L26 17L25 17L25 16L26 16L26 15L24 15L24 12L22 12L22 13L23 13L23 15L24 15L24 16L22 16L22 18L21 18L21 17L19 17L19 15L21 15L21 14L20 14L20 13L19 13L19 12L18 12L18 13L19 13L19 15L18 15L18 14L17 14L17 13L15 13L15 14L14 14L14 12L12 12L12 11ZM13 14L13 15L14 15L14 14ZM16 14L16 15L15 15L15 16L17 16L17 17L16 17L16 18L17 18L17 20L16 20L16 19L15 19L15 18L14 18L14 17L13 17L13 16L12 16L12 17L11 17L11 19L12 19L12 20L11 20L11 22L12 22L12 20L14 20L14 22L13 22L13 23L14 23L14 22L15 22L15 21L16 21L16 23L15 23L15 24L16 24L16 26L17 26L17 25L18 25L18 24L19 24L19 25L20 25L20 26L21 26L21 25L23 25L23 24L22 24L22 22L21 22L21 21L22 21L22 20L23 20L23 18L22 18L22 19L21 19L21 20L19 20L19 19L18 19L18 18L17 18L17 17L18 17L18 15L17 15L17 14ZM2 15L2 16L3 16L3 15ZM6 16L6 17L7 17L7 16ZM8 16L8 17L9 17L9 18L10 18L10 17L9 17L9 16ZM24 17L24 18L25 18L25 17ZM31 17L31 18L32 18L32 17ZM13 18L13 19L14 19L14 18ZM18 20L18 21L17 21L17 22L19 22L19 24L20 24L20 23L21 23L21 22L20 22L20 21L19 21L19 20ZM6 21L6 22L5 22L5 23L6 23L6 24L7 24L7 23L6 23L6 22L7 22L7 21ZM28 22L28 23L29 23L29 22ZM11 23L11 24L12 24L12 23ZM25 25L25 28L28 28L28 25ZM31 25L31 28L33 28L33 25ZM26 26L26 27L27 27L27 26ZM25 29L25 30L24 30L24 31L25 31L25 32L27 32L27 29ZM32 29L32 31L31 31L31 33L33 33L33 32L32 32L32 31L33 31L33 29ZM10 31L10 33L11 33L11 32L12 32L12 33L13 33L13 32L12 32L12 31ZM0 0L0 7L7 7L7 0ZM1 1L1 6L6 6L6 1ZM2 2L2 5L5 5L5 2ZM26 0L26 7L33 7L33 0ZM27 1L27 6L32 6L32 1ZM28 2L28 5L31 5L31 2ZM0 26L0 33L7 33L7 26ZM1 27L1 32L6 32L6 27ZM2 28L2 31L5 31L5 28Z" fill="#000000"/></g></g></svg>
