<?xml version="1.0" encoding="UTF-8"?>
<svg xmlns="http://www.w3.org/2000/svg" version="1.1" width="100" height="100" viewBox="0 0 100 100"><rect x="0" y="0" width="100" height="100" fill="#ffffff"/><g transform="scale(3.448)"><g transform="translate(0,0)"><path fill-rule="evenodd" d="M11 0L11 1L10 1L10 2L9 2L9 1L8 1L8 2L9 2L9 3L8 3L8 4L9 4L9 5L8 5L8 7L9 7L9 8L6 8L6 9L8 9L8 10L6 10L6 11L5 11L5 10L4 10L4 12L1 12L1 11L0 11L0 12L1 12L1 14L0 14L0 15L1 15L1 16L0 16L0 21L1 21L1 16L2 16L2 15L3 15L3 17L2 17L2 21L3 21L3 19L5 19L5 20L4 20L4 21L5 21L5 20L6 20L6 21L8 21L8 23L10 23L10 24L11 24L11 25L9 25L9 24L8 24L8 29L9 29L9 28L10 28L10 27L11 27L11 26L12 26L12 25L15 25L15 24L12 24L12 23L16 23L16 24L17 24L17 25L16 25L16 26L14 26L14 27L18 27L18 26L19 26L19 25L18 25L18 24L20 24L20 25L21 25L21 27L19 27L19 29L20 29L20 28L21 28L21 27L22 27L22 29L25 29L25 28L26 28L26 29L27 29L27 28L28 28L28 26L29 26L29 25L28 25L28 26L26 26L26 25L27 25L27 24L26 24L26 23L27 23L27 22L29 22L29 20L28 20L28 19L27 19L27 16L28 16L28 15L27 15L27 12L28 12L28 11L27 11L27 12L25 12L25 9L26 9L26 8L25 8L25 9L24 9L24 8L23 8L23 9L22 9L22 8L21 8L21 3L20 3L20 2L19 2L19 3L20 3L20 4L19 4L19 5L17 5L17 4L18 4L18 3L17 3L17 2L16 2L16 1L17 1L17 0L16 0L16 1L15 1L15 0L14 0L14 3L13 3L13 6L12 6L12 8L11 8L11 6L10 6L10 5L12 5L12 4L9 4L9 3L11 3L11 1L12 1L12 2L13 2L13 0ZM19 0L19 1L21 1L21 0ZM16 3L16 4L14 4L14 6L13 6L13 8L14 8L14 10L16 10L16 9L17 9L17 11L16 11L16 12L15 12L15 14L16 14L16 13L17 13L17 12L18 12L18 13L21 13L21 14L18 14L18 15L17 15L17 16L15 16L15 15L14 15L14 13L12 13L12 12L14 12L14 11L12 11L12 10L13 10L13 9L12 9L12 10L11 10L11 12L10 12L10 16L9 16L9 13L8 13L8 11L6 11L6 12L4 12L4 13L6 13L6 14L7 14L7 13L8 13L8 15L6 15L6 16L9 16L9 17L8 17L8 18L7 18L7 17L6 17L6 18L7 18L7 19L6 19L6 20L8 20L8 19L10 19L10 21L9 21L9 22L10 22L10 23L12 23L12 22L11 22L11 19L12 19L12 20L14 20L14 19L15 19L15 21L14 21L14 22L16 22L16 21L17 21L17 24L18 24L18 22L20 22L20 18L17 18L17 16L18 16L18 15L21 15L21 16L20 16L20 17L21 17L21 19L22 19L22 20L23 20L23 19L25 19L25 21L26 21L26 20L27 20L27 19L25 19L25 18L24 18L24 17L26 17L26 16L27 16L27 15L26 15L26 13L25 13L25 12L24 12L24 13L25 13L25 14L22 14L22 13L23 13L23 11L24 11L24 10L21 10L21 12L19 12L19 11L20 11L20 10L19 10L19 11L18 11L18 9L20 9L20 5L19 5L19 7L18 7L18 6L17 6L17 5L16 5L16 4L17 4L17 3ZM15 5L15 6L14 6L14 8L15 8L15 6L16 6L16 8L17 8L17 9L18 9L18 8L17 8L17 6L16 6L16 5ZM9 6L9 7L10 7L10 6ZM0 8L0 9L5 9L5 8ZM9 8L9 9L11 9L11 8ZM27 8L27 9L28 9L28 10L29 10L29 9L28 9L28 8ZM2 10L2 11L3 11L3 10ZM6 12L6 13L7 13L7 12ZM11 13L11 14L12 14L12 13ZM28 13L28 14L29 14L29 13ZM21 14L21 15L22 15L22 16L24 16L24 15L22 15L22 14ZM4 15L4 16L5 16L5 15ZM10 16L10 17L9 17L9 18L10 18L10 17L11 17L11 18L12 18L12 17L15 17L15 16L12 16L12 17L11 17L11 16ZM22 17L22 18L23 18L23 17ZM28 17L28 18L29 18L29 17ZM15 18L15 19L17 19L17 18ZM17 20L17 21L18 21L18 20ZM21 21L21 24L24 24L24 21ZM22 22L22 23L23 23L23 22ZM25 24L25 25L24 25L24 26L25 26L25 27L24 27L24 28L25 28L25 27L26 27L26 28L27 28L27 27L26 27L26 26L25 26L25 25L26 25L26 24ZM22 25L22 26L23 26L23 25ZM9 26L9 27L10 27L10 26ZM12 27L12 29L15 29L15 28L13 28L13 27ZM17 28L17 29L18 29L18 28ZM0 0L0 7L7 7L7 0ZM1 1L1 6L6 6L6 1ZM2 2L2 5L5 5L5 2ZM22 0L22 7L29 7L29 0ZM23 1L23 6L28 6L28 1ZM24 2L24 5L27 5L27 2ZM0 22L0 29L7 29L7 22ZM1 23L1 28L6 28L6 23ZM2 24L2 27L5 27L5 24Z" fill="#000000"/></g></g></svg>
