<?xml version="1.0" encoding="UTF-8"?>
<svg xmlns="http://www.w3.org/2000/svg" version="1.1" width="113" height="113" viewBox="0 0 113 113"><rect x="0" y="0" width="113" height="113" fill="#ffffff"/><g transform="scale(3.424)"><g transform="translate(0,0)"><path fill-rule="evenodd" d="M8 0L8 1L11 1L11 3L10 3L10 2L9 2L9 3L10 3L10 5L9 5L9 6L8 6L8 8L9 8L9 9L7 9L7 8L6 8L6 9L7 9L7 10L4 10L4 9L5 9L5 8L3 8L3 10L1 10L1 11L3 11L3 12L2 12L2 13L1 13L1 12L0 12L0 13L1 13L1 16L2 16L2 17L3 17L3 16L5 16L5 15L8 15L8 16L6 16L6 17L4 17L4 18L2 18L2 19L0 19L0 20L1 20L1 21L0 21L0 25L2 25L2 24L3 24L3 25L4 25L4 23L5 23L5 22L6 22L6 23L7 23L7 24L5 24L5 25L8 25L8 26L9 26L9 25L10 25L10 24L11 24L11 25L13 25L13 26L10 26L10 28L8 28L8 30L10 30L10 33L11 33L11 31L12 31L12 33L15 33L15 32L16 32L16 33L18 33L18 32L17 32L17 31L20 31L20 30L21 30L21 31L23 31L23 30L24 30L24 29L25 29L25 31L26 31L26 32L27 32L27 31L26 31L26 29L29 29L29 28L31 28L31 29L30 29L30 30L28 30L28 32L29 32L29 31L30 31L30 32L33 32L33 29L32 29L32 28L33 28L33 27L32 27L32 28L31 28L31 27L30 27L30 26L32 26L32 24L31 24L31 23L33 23L33 22L32 22L32 21L28 21L28 19L29 19L29 20L33 20L33 15L32 15L32 16L31 16L31 15L30 15L30 12L31 12L31 13L33 13L33 12L31 12L31 11L30 11L30 10L29 10L29 9L27 9L27 8L26 8L26 9L27 9L27 10L29 10L29 11L27 11L27 12L26 12L26 13L25 13L25 12L24 12L24 9L25 9L25 8L24 8L24 7L25 7L25 5L23 5L23 4L22 4L22 2L23 2L23 3L24 3L24 4L25 4L25 3L24 3L24 2L23 2L23 1L22 1L22 0L21 0L21 1L19 1L19 3L20 3L20 4L18 4L18 3L17 3L17 2L15 2L15 3L14 3L14 0L13 0L13 1L12 1L12 0ZM16 0L16 1L18 1L18 0ZM21 1L21 2L22 2L22 1ZM12 2L12 4L14 4L14 3L13 3L13 2ZM16 3L16 4L15 4L15 7L16 7L16 6L17 6L17 8L19 8L19 9L20 9L20 10L16 10L16 11L15 11L15 12L16 12L16 13L17 13L17 14L16 14L16 15L15 15L15 16L13 16L13 17L12 17L12 18L11 18L11 16L12 16L12 15L14 15L14 14L15 14L15 13L13 13L13 12L14 12L14 9L12 9L12 6L13 6L13 8L14 8L14 6L13 6L13 5L12 5L12 6L11 6L11 5L10 5L10 6L9 6L9 7L10 7L10 9L9 9L9 10L7 10L7 11L6 11L6 12L7 12L7 13L6 13L6 14L7 14L7 13L8 13L8 14L9 14L9 12L11 12L11 14L10 14L10 15L9 15L9 16L8 16L8 17L9 17L9 20L8 20L8 21L9 21L9 20L10 20L10 22L8 22L8 23L9 23L9 24L10 24L10 23L11 23L11 22L12 22L12 23L13 23L13 22L12 22L12 21L13 21L13 19L12 19L12 18L15 18L15 17L16 17L16 18L17 18L17 17L19 17L19 16L21 16L21 17L20 17L20 19L17 19L17 20L18 20L18 21L20 21L20 22L17 22L17 21L16 21L16 22L17 22L17 23L15 23L15 20L16 20L16 19L14 19L14 25L15 25L15 24L17 24L17 26L16 26L16 28L15 28L15 26L14 26L14 27L12 27L12 28L10 28L10 29L14 29L14 28L15 28L15 29L19 29L19 28L18 28L18 27L19 27L19 26L21 26L21 25L22 25L22 27L21 27L21 30L23 30L23 29L22 29L22 28L23 28L23 25L22 25L22 22L21 22L21 21L23 21L23 20L22 20L22 19L21 19L21 18L22 18L22 16L24 16L24 17L23 17L23 18L24 18L24 20L25 20L25 22L26 22L26 24L27 24L27 20L25 20L25 16L24 16L24 14L25 14L25 15L26 15L26 16L27 16L27 17L28 17L28 16L27 16L27 15L26 15L26 14L27 14L27 13L26 13L26 14L25 14L25 13L24 13L24 14L23 14L23 15L22 15L22 13L23 13L23 11L21 11L21 10L23 10L23 7L24 7L24 6L23 6L23 7L22 7L22 6L21 6L21 4L20 4L20 5L19 5L19 7L18 7L18 4L17 4L17 3ZM10 6L10 7L11 7L11 6ZM20 6L20 7L21 7L21 6ZM0 8L0 9L2 9L2 8ZM15 8L15 9L16 9L16 8ZM32 8L32 9L31 9L31 10L32 10L32 11L33 11L33 10L32 10L32 9L33 9L33 8ZM10 9L10 10L9 10L9 11L8 11L8 12L9 12L9 11L10 11L10 10L11 10L11 9ZM12 10L12 11L13 11L13 10ZM25 10L25 11L26 11L26 10ZM4 11L4 12L5 12L5 11ZM17 11L17 12L18 12L18 11ZM20 12L20 13L21 13L21 12ZM28 12L28 15L29 15L29 16L30 16L30 17L29 17L29 19L32 19L32 18L31 18L31 16L30 16L30 15L29 15L29 12ZM4 13L4 14L5 14L5 13ZM12 13L12 14L13 14L13 13ZM2 14L2 16L3 16L3 14ZM19 14L19 15L18 15L18 16L19 16L19 15L21 15L21 14ZM16 15L16 16L17 16L17 15ZM0 17L0 18L1 18L1 17ZM6 17L6 18L5 18L5 19L6 19L6 20L7 20L7 19L8 19L8 18L7 18L7 17ZM6 18L6 19L7 19L7 18ZM27 18L27 19L28 19L28 18ZM3 19L3 20L2 20L2 21L1 21L1 24L2 24L2 21L3 21L3 23L4 23L4 22L5 22L5 21L3 21L3 20L4 20L4 19ZM10 19L10 20L11 20L11 21L12 21L12 19ZM20 19L20 20L21 20L21 19ZM6 21L6 22L7 22L7 21ZM28 22L28 23L29 23L29 24L30 24L30 25L31 25L31 24L30 24L30 23L31 23L31 22L30 22L30 23L29 23L29 22ZM17 23L17 24L20 24L20 25L21 25L21 23ZM24 23L24 24L25 24L25 23ZM18 25L18 26L19 26L19 25ZM25 25L25 28L28 28L28 25ZM26 26L26 27L27 27L27 26ZM12 30L12 31L13 31L13 32L14 32L14 31L15 31L15 30ZM30 30L30 31L31 31L31 30ZM8 31L8 33L9 33L9 31ZM23 32L23 33L25 33L25 32ZM0 0L0 7L7 7L7 0ZM1 1L1 6L6 6L6 1ZM2 2L2 5L5 5L5 2ZM26 0L26 7L33 7L33 0ZM27 1L27 6L32 6L32 1ZM28 2L28 5L31 5L31 2ZM0 26L0 33L7 33L7 26ZM1 27L1 32L6 32L6 27ZM2 28L2 31L5 31L5 28Z" fill="#000000"/></g></g></svg>
