<?xml version="1.0" encoding="UTF-8"?>
<svg xmlns="http://www.w3.org/2000/svg" version="1.1" width="113" height="113" viewBox="0 0 113 113"><rect x="0" y="0" width="113" height="113" fill="#ffffff"/><g transform="scale(3.424)"><g transform="translate(0,0)"><path fill-rule="evenodd" d="M9 0L9 1L8 1L8 2L9 2L9 3L8 3L8 4L10 4L10 7L11 7L11 4L12 4L12 5L13 5L13 6L12 6L12 9L13 9L13 8L14 8L14 9L15 9L15 8L14 8L14 7L15 7L15 6L16 6L16 8L17 8L17 11L16 11L16 10L15 10L15 11L14 11L14 12L15 12L15 13L12 13L12 11L13 11L13 10L11 10L11 11L10 11L10 9L11 9L11 8L6 8L6 9L7 9L7 10L5 10L5 11L8 11L8 12L6 12L6 13L7 13L7 14L6 14L6 15L7 15L7 16L6 16L6 17L4 17L4 18L3 18L3 19L2 19L2 22L3 22L3 24L2 24L2 25L3 25L3 24L5 24L5 23L7 23L7 24L6 24L6 25L8 25L8 27L9 27L9 26L10 26L10 27L11 27L11 29L10 29L10 28L8 28L8 33L9 33L9 31L10 31L10 33L11 33L11 31L10 31L10 30L11 30L11 29L12 29L12 30L13 30L13 31L12 31L12 33L13 33L13 32L14 32L14 33L15 33L15 32L14 32L14 31L16 31L16 32L17 32L17 33L18 33L18 32L17 32L17 31L16 31L16 30L15 30L15 29L12 29L12 27L13 27L13 26L10 26L10 25L11 25L11 22L10 22L10 25L8 25L8 22L4 22L4 21L5 21L5 20L6 20L6 21L10 21L10 20L11 20L11 21L12 21L12 22L13 22L13 23L12 23L12 25L13 25L13 24L14 24L14 25L16 25L16 26L15 26L15 27L14 27L14 28L15 28L15 27L16 27L16 28L17 28L17 29L18 29L18 31L19 31L19 33L20 33L20 32L22 32L22 33L26 33L26 31L27 31L27 32L28 32L28 33L29 33L29 31L27 31L27 30L33 30L33 28L31 28L31 27L32 27L32 26L33 26L33 24L32 24L32 26L31 26L31 25L29 25L29 24L31 24L31 23L32 23L32 22L33 22L33 21L32 21L32 20L31 20L31 19L32 19L32 18L33 18L33 17L32 17L32 16L31 16L31 15L32 15L32 14L33 14L33 13L31 13L31 15L30 15L30 13L29 13L29 12L27 12L27 13L26 13L26 12L24 12L24 13L23 13L23 10L24 10L24 9L26 9L26 10L25 10L25 11L27 11L27 9L28 9L28 8L27 8L27 9L26 9L26 8L24 8L24 7L25 7L25 5L24 5L24 4L25 4L25 3L24 3L24 2L23 2L23 1L24 1L24 0L19 0L19 1L21 1L21 2L20 2L20 3L22 3L22 4L18 4L18 3L16 3L16 1L15 1L15 0L14 0L14 1L15 1L15 2L14 2L14 3L16 3L16 4L17 4L17 5L14 5L14 4L12 4L12 2L13 2L13 1L11 1L11 2L10 2L10 0ZM10 3L10 4L11 4L11 3ZM23 3L23 4L24 4L24 3ZM8 5L8 7L9 7L9 5ZM19 5L19 7L18 7L18 6L17 6L17 8L19 8L19 7L20 7L20 6L21 6L21 7L22 7L22 8L20 8L20 9L22 9L22 8L23 8L23 7L24 7L24 5ZM13 6L13 7L14 7L14 6ZM22 6L22 7L23 7L23 6ZM0 8L0 11L2 11L2 12L1 12L1 13L0 13L0 20L1 20L1 18L2 18L2 17L1 17L1 13L2 13L2 14L3 14L3 13L4 13L4 14L5 14L5 13L4 13L4 11L2 11L2 10L4 10L4 9L5 9L5 8ZM29 8L29 9L30 9L30 8ZM31 8L31 10L33 10L33 9L32 9L32 8ZM1 9L1 10L2 10L2 9ZM8 10L8 11L9 11L9 10ZM18 10L18 11L17 11L17 12L18 12L18 13L17 13L17 15L16 15L16 16L15 16L15 15L14 15L14 16L13 16L13 17L12 17L12 15L13 15L13 14L12 14L12 13L11 13L11 12L10 12L10 13L11 13L11 14L10 14L10 15L9 15L9 14L7 14L7 15L8 15L8 16L7 16L7 17L6 17L6 18L8 18L8 17L10 17L10 16L11 16L11 18L13 18L13 19L12 19L12 21L15 21L15 22L16 22L16 21L17 21L17 20L18 20L18 21L19 21L19 19L20 19L20 21L21 21L21 23L22 23L22 24L20 24L20 25L21 25L21 26L23 26L23 25L24 25L24 24L25 24L25 23L24 23L24 22L23 22L23 21L22 21L22 20L21 20L21 19L20 19L20 18L21 18L21 17L22 17L22 19L24 19L24 20L26 20L26 21L25 21L25 22L26 22L26 21L27 21L27 22L28 22L28 23L26 23L26 24L29 24L29 23L31 23L31 22L29 22L29 21L31 21L31 20L29 20L29 17L30 17L30 19L31 19L31 16L30 16L30 15L27 15L27 16L26 16L26 17L27 17L27 18L25 18L25 16L24 16L24 14L26 14L26 13L24 13L24 14L21 14L21 15L23 15L23 17L22 17L22 16L20 16L20 14L19 14L19 12L20 12L20 13L22 13L22 12L21 12L21 11L20 11L20 10ZM30 11L30 12L31 12L31 11ZM8 12L8 13L9 13L9 12ZM15 13L15 14L16 14L16 13ZM27 13L27 14L29 14L29 13ZM3 15L3 16L5 16L5 15ZM18 15L18 16L17 16L17 17L16 17L16 18L15 18L15 19L14 19L14 20L15 20L15 21L16 21L16 20L17 20L17 19L16 19L16 18L17 18L17 17L18 17L18 19L19 19L19 18L20 18L20 16L19 16L19 15ZM14 16L14 17L15 17L15 16ZM18 16L18 17L19 17L19 16ZM28 16L28 17L29 17L29 16ZM23 17L23 18L24 18L24 17ZM4 18L4 19L3 19L3 20L4 20L4 19L5 19L5 18ZM9 18L9 19L6 19L6 20L9 20L9 19L10 19L10 18ZM27 20L27 21L29 21L29 20ZM0 21L0 25L1 25L1 21ZM18 22L18 23L17 23L17 24L16 24L16 25L17 25L17 28L18 28L18 29L19 29L19 28L18 28L18 27L20 27L20 29L22 29L22 28L21 28L21 27L20 27L20 26L18 26L18 25L19 25L19 24L18 24L18 23L20 23L20 22ZM22 22L22 23L23 23L23 22ZM14 23L14 24L15 24L15 23ZM17 24L17 25L18 25L18 24ZM25 25L25 28L28 28L28 25ZM26 26L26 27L27 27L27 26ZM30 26L30 27L31 27L31 26ZM23 28L23 30L22 30L22 32L25 32L25 31L26 31L26 30L27 30L27 29L26 29L26 30L25 30L25 29L24 29L24 28ZM30 28L30 29L31 29L31 28ZM9 29L9 30L10 30L10 29ZM19 30L19 31L20 31L20 30ZM23 30L23 31L24 31L24 30ZM30 31L30 32L31 32L31 33L32 33L32 32L31 32L31 31ZM0 0L0 7L7 7L7 0ZM1 1L1 6L6 6L6 1ZM2 2L2 5L5 5L5 2ZM26 0L26 7L33 7L33 0ZM27 1L27 6L32 6L32 1ZM28 2L28 5L31 5L31 2ZM0 26L0 33L7 33L7 26ZM1 27L1 32L6 32L6 27ZM2 28L2 31L5 31L5 28Z" fill="#000000"/></g></g></svg>
