<?xml version="1.0" encoding="UTF-8"?>
<svg xmlns="http://www.w3.org/2000/svg" version="1.1" width="113" height="113" viewBox="0 0 113 113"><rect x="0" y="0" width="113" height="113" fill="#ffffff"/><g transform="scale(3.424)"><g transform="translate(0,0)"><path fill-rule="evenodd" d="M8 0L8 1L9 1L9 2L8 2L8 5L9 5L9 4L11 4L11 5L10 5L10 10L9 10L9 11L8 11L8 10L6 10L6 9L7 9L7 8L6 8L6 9L4 9L4 8L0 8L0 9L1 9L1 12L0 12L0 14L1 14L1 15L0 15L0 17L1 17L1 19L2 19L2 17L3 17L3 16L6 16L6 17L7 17L7 16L8 16L8 17L10 17L10 18L9 18L9 19L8 19L8 20L9 20L9 21L8 21L8 22L6 22L6 23L7 23L7 24L6 24L6 25L7 25L7 24L8 24L8 22L9 22L9 21L11 21L11 20L12 20L12 19L10 19L10 18L11 18L11 17L10 17L10 16L12 16L12 17L13 17L13 16L12 16L12 14L13 14L13 15L14 15L14 18L13 18L13 21L15 21L15 19L16 19L16 23L17 23L17 22L18 22L18 23L19 23L19 22L21 22L21 23L20 23L20 24L19 24L19 26L18 26L18 24L17 24L17 25L16 25L16 24L15 24L15 22L14 22L14 23L10 23L10 24L9 24L9 25L8 25L8 26L9 26L9 25L10 25L10 24L11 24L11 26L12 26L12 28L11 28L11 27L9 27L9 29L8 29L8 33L9 33L9 30L11 30L11 31L12 31L12 32L11 32L11 33L14 33L14 32L13 32L13 30L14 30L14 29L12 29L12 28L14 28L14 27L15 27L15 26L18 26L18 29L20 29L20 31L19 31L19 30L18 30L18 31L16 31L16 30L17 30L17 29L16 29L16 28L17 28L17 27L16 27L16 28L15 28L15 33L19 33L19 32L20 32L20 31L22 31L22 30L21 30L21 29L24 29L24 30L23 30L23 33L24 33L24 32L27 32L27 33L28 33L28 32L30 32L30 33L31 33L31 32L30 32L30 31L28 31L28 32L27 32L27 30L26 30L26 31L24 31L24 30L25 30L25 29L29 29L29 30L30 30L30 29L32 29L32 30L33 30L33 29L32 29L32 27L31 27L31 26L29 26L29 24L30 24L30 23L31 23L31 24L32 24L32 25L33 25L33 24L32 24L32 23L33 23L33 21L31 21L31 20L30 20L30 21L29 21L29 23L27 23L27 24L25 24L25 23L26 23L26 22L27 22L27 21L26 21L26 22L25 22L25 21L24 21L24 20L25 20L25 19L24 19L24 20L23 20L23 19L22 19L22 18L25 18L25 17L26 17L26 18L29 18L29 19L30 19L30 18L31 18L31 19L32 19L32 20L33 20L33 19L32 19L32 18L33 18L33 16L31 16L31 14L32 14L32 13L30 13L30 14L29 14L29 15L30 15L30 16L27 16L27 14L28 14L28 13L29 13L29 11L31 11L31 12L32 12L32 11L33 11L33 8L32 8L32 9L31 9L31 8L28 8L28 9L31 9L31 10L29 10L29 11L28 11L28 10L27 10L27 9L26 9L26 8L25 8L25 6L24 6L24 8L23 8L23 9L22 9L22 8L21 8L21 9L18 9L18 8L20 8L20 7L21 7L21 6L22 6L22 7L23 7L23 3L24 3L24 5L25 5L25 1L24 1L24 0L19 0L19 1L16 1L16 3L15 3L15 0L14 0L14 2L13 2L13 0L12 0L12 1L11 1L11 0L10 0L10 1L9 1L9 0ZM19 1L19 2L20 2L20 1ZM21 1L21 3L18 3L18 2L17 2L17 3L18 3L18 4L16 4L16 5L15 5L15 3L14 3L14 6L13 6L13 5L12 5L12 6L11 6L11 8L12 8L12 6L13 6L13 8L14 8L14 11L11 11L11 13L9 13L9 12L7 12L7 11L6 11L6 10L5 10L5 12L7 12L7 13L6 13L6 14L7 14L7 15L6 15L6 16L7 16L7 15L8 15L8 14L9 14L9 15L11 15L11 13L12 13L12 12L13 12L13 14L14 14L14 15L16 15L16 19L18 19L18 18L19 18L19 19L20 19L20 18L22 18L22 17L18 17L18 14L14 14L14 12L18 12L18 13L19 13L19 12L18 12L18 10L17 10L17 9L15 9L15 8L14 8L14 6L15 6L15 7L16 7L16 6L17 6L17 7L18 7L18 6L19 6L19 7L20 7L20 6L21 6L21 5L22 5L22 3L23 3L23 2L22 2L22 1ZM11 2L11 4L12 4L12 3L13 3L13 2ZM19 4L19 6L20 6L20 4ZM17 5L17 6L18 6L18 5ZM8 6L8 7L9 7L9 6ZM8 8L8 9L9 9L9 8ZM24 8L24 10L26 10L26 13L25 13L25 14L24 14L24 11L22 11L22 10L19 10L19 11L20 11L20 14L22 14L22 12L23 12L23 16L24 16L24 15L26 15L26 14L27 14L27 10L26 10L26 9L25 9L25 8ZM11 9L11 10L12 10L12 9ZM2 10L2 11L4 11L4 10ZM31 10L31 11L32 11L32 10ZM2 12L2 13L1 13L1 14L2 14L2 13L4 13L4 12ZM4 14L4 15L5 15L5 14ZM1 15L1 16L3 16L3 15ZM19 15L19 16L20 16L20 15ZM4 17L4 18L5 18L5 20L4 20L4 19L3 19L3 21L7 21L7 20L6 20L6 19L7 19L7 18L5 18L5 17ZM31 17L31 18L32 18L32 17ZM9 19L9 20L10 20L10 19ZM21 19L21 20L19 20L19 21L21 21L21 22L23 22L23 20L22 20L22 19ZM26 19L26 20L28 20L28 19ZM0 20L0 22L2 22L2 23L1 23L1 24L0 24L0 25L1 25L1 24L2 24L2 25L4 25L4 23L5 23L5 22L2 22L2 21L1 21L1 20ZM21 20L21 21L22 21L22 20ZM24 22L24 23L23 23L23 24L22 24L22 23L21 23L21 24L20 24L20 26L21 26L21 27L20 27L20 28L21 28L21 27L23 27L23 26L24 26L24 23L25 23L25 22ZM2 23L2 24L3 24L3 23ZM12 24L12 26L13 26L13 27L14 27L14 26L15 26L15 24ZM13 25L13 26L14 26L14 25ZM21 25L21 26L22 26L22 25ZM25 25L25 28L28 28L28 25ZM26 26L26 27L27 27L27 26ZM10 28L10 29L11 29L11 30L12 30L12 29L11 29L11 28ZM29 28L29 29L30 29L30 28ZM32 31L32 32L33 32L33 31ZM21 32L21 33L22 33L22 32ZM0 0L0 7L7 7L7 0ZM1 1L1 6L6 6L6 1ZM2 2L2 5L5 5L5 2ZM26 0L26 7L33 7L33 0ZM27 1L27 6L32 6L32 1ZM28 2L28 5L31 5L31 2ZM0 26L0 33L7 33L7 26ZM1 27L1 32L6 32L6 27ZM2 28L2 31L5 31L5 28Z" fill="#000000"/></g></g></svg>
