<?xml version="1.0" encoding="UTF-8"?>
<svg xmlns="http://www.w3.org/2000/svg" version="1.1" width="113" height="113" viewBox="0 0 113 113"><rect x="0" y="0" width="113" height="113" fill="#ffffff"/><g transform="scale(3.424)"><g transform="translate(0,0)"><path fill-rule="evenodd" d="M9 0L9 1L10 1L10 2L8 2L8 3L9 3L9 4L10 4L10 5L9 5L9 6L8 6L8 8L4 8L4 9L3 9L3 8L0 8L0 9L3 9L3 11L2 11L2 10L1 10L1 11L0 11L0 12L2 12L2 13L0 13L0 15L2 15L2 17L1 17L1 16L0 16L0 19L2 19L2 17L8 17L8 19L7 19L7 18L6 18L6 19L7 19L7 20L5 20L5 22L6 22L6 23L7 23L7 24L4 24L4 22L3 22L3 21L4 21L4 20L1 20L1 21L2 21L2 22L3 22L3 23L1 23L1 22L0 22L0 23L1 23L1 24L0 24L0 25L1 25L1 24L3 24L3 25L7 25L7 24L8 24L8 29L9 29L9 30L8 30L8 33L12 33L12 32L14 32L14 33L18 33L18 32L19 32L19 33L22 33L22 31L23 31L23 33L28 33L28 32L30 32L30 31L29 31L29 29L30 29L30 28L29 28L29 27L30 27L30 26L29 26L29 24L25 24L25 23L26 23L26 22L27 22L27 20L26 20L26 19L30 19L30 18L31 18L31 21L32 21L32 22L31 22L31 24L32 24L32 23L33 23L33 20L32 20L32 19L33 19L33 16L32 16L32 15L33 15L33 12L32 12L32 11L33 11L33 9L32 9L32 11L31 11L31 12L32 12L32 14L31 14L31 13L30 13L30 14L29 14L29 16L30 16L30 14L31 14L31 17L30 17L30 18L27 18L27 17L28 17L28 16L27 16L27 15L26 15L26 14L27 14L27 12L26 12L26 10L27 10L27 11L29 11L29 12L30 12L30 11L29 11L29 10L31 10L31 8L30 8L30 9L29 9L29 10L27 10L27 8L25 8L25 6L24 6L24 2L25 2L25 1L24 1L24 0L23 0L23 1L21 1L21 2L23 2L23 3L22 3L22 4L23 4L23 6L22 6L22 7L21 7L21 6L20 6L20 3L18 3L18 4L17 4L17 2L20 2L20 0L19 0L19 1L17 1L17 0L15 0L15 2L14 2L14 1L13 1L13 0L12 0L12 1L10 1L10 0ZM11 2L11 3L12 3L12 4L11 4L11 5L10 5L10 6L9 6L9 7L10 7L10 6L11 6L11 8L12 8L12 10L10 10L10 8L9 8L9 10L10 10L10 11L9 11L9 12L8 12L8 11L6 11L6 12L7 12L7 13L5 13L5 14L7 14L7 13L10 13L10 14L8 14L8 15L10 15L10 14L11 14L11 13L12 13L12 12L13 12L13 13L14 13L14 14L13 14L13 15L14 15L14 14L15 14L15 15L16 15L16 16L17 16L17 15L18 15L18 18L17 18L17 19L18 19L18 18L19 18L19 20L18 20L18 21L17 21L17 22L16 22L16 20L15 20L15 19L16 19L16 17L15 17L15 18L14 18L14 16L12 16L12 15L11 15L11 16L9 16L9 18L10 18L10 17L11 17L11 16L12 16L12 18L11 18L11 19L8 19L8 20L7 20L7 21L6 21L6 22L7 22L7 21L8 21L8 20L9 20L9 21L10 21L10 20L11 20L11 21L12 21L12 20L13 20L13 21L14 21L14 22L13 22L13 23L14 23L14 22L15 22L15 23L17 23L17 22L18 22L18 26L16 26L16 24L15 24L15 26L14 26L14 24L12 24L12 23L11 23L11 22L10 22L10 23L8 23L8 24L9 24L9 25L10 25L10 26L9 26L9 29L12 29L12 28L13 28L13 29L14 29L14 30L13 30L13 31L14 31L14 30L15 30L15 32L16 32L16 30L17 30L17 31L18 31L18 30L19 30L19 32L20 32L20 31L22 31L22 30L20 30L20 29L19 29L19 28L21 28L21 27L23 27L23 28L22 28L22 29L24 29L24 27L23 27L23 26L24 26L24 24L23 24L23 23L24 23L24 22L25 22L25 21L23 21L23 20L24 20L24 19L26 19L26 17L25 17L25 16L26 16L26 15L24 15L24 12L22 12L22 13L23 13L23 15L24 15L24 16L22 16L22 18L21 18L21 17L19 17L19 15L21 15L21 14L20 14L20 13L19 13L19 12L18 12L18 13L19 13L19 14L16 14L16 13L17 13L17 12L15 12L15 11L16 11L16 10L18 10L18 11L20 11L20 12L21 12L21 11L25 11L25 10L24 10L24 9L23 9L23 8L24 8L24 6L23 6L23 7L22 7L22 9L23 9L23 10L20 10L20 9L14 9L14 8L16 8L16 6L15 6L15 3L16 3L16 2L15 2L15 3L14 3L14 2L13 2L13 3L12 3L12 2ZM17 5L17 7L18 7L18 6L19 6L19 8L20 8L20 6L19 6L19 5ZM12 6L12 8L14 8L14 7L15 7L15 6L14 6L14 7L13 7L13 6ZM5 9L5 10L8 10L8 9ZM13 10L13 11L14 11L14 10ZM11 11L11 12L12 12L12 11ZM3 13L3 14L2 14L2 15L3 15L3 16L4 16L4 15L3 15L3 14L4 14L4 13ZM5 15L5 16L7 16L7 15ZM24 17L24 18L25 18L25 17ZM31 17L31 18L32 18L32 17ZM3 18L3 19L4 19L4 18ZM13 18L13 19L14 19L14 18ZM22 18L22 19L21 19L21 20L19 20L19 21L20 21L20 22L21 22L21 23L20 23L20 24L19 24L19 25L20 25L20 26L21 26L21 25L23 25L23 24L22 24L22 22L21 22L21 21L22 21L22 20L23 20L23 18ZM11 19L11 20L12 20L12 19ZM28 22L28 23L29 23L29 22ZM10 23L10 24L11 24L11 26L12 26L12 24L11 24L11 23ZM25 25L25 28L28 28L28 25ZM31 25L31 27L33 27L33 25ZM13 26L13 27L14 27L14 26ZM26 26L26 27L27 27L27 26ZM10 27L10 28L12 28L12 27ZM16 27L16 28L15 28L15 29L17 29L17 30L18 30L18 27ZM31 28L31 29L32 29L32 31L31 31L31 33L33 33L33 32L32 32L32 31L33 31L33 29L32 29L32 28ZM25 29L25 30L24 30L24 31L25 31L25 32L27 32L27 29ZM9 30L9 31L10 31L10 32L12 32L12 31L10 31L10 30ZM0 0L0 7L7 7L7 0ZM1 1L1 6L6 6L6 1ZM2 2L2 5L5 5L5 2ZM26 0L26 7L33 7L33 0ZM27 1L27 6L32 6L32 1ZM28 2L28 5L31 5L31 2ZM0 26L0 33L7 33L7 26ZM1 27L1 32L6 32L6 27ZM2 28L2 31L5 31L5 28Z" fill="#000000"/></g></g></svg>
