<?xml version="1.0" encoding="UTF-8"?>
<svg xmlns="http://www.w3.org/2000/svg" version="1.1" width="113" height="113" viewBox="0 0 113 113"><rect x="0" y="0" width="113" height="113" fill="#ffffff"/><g transform="scale(3.424)"><g transform="translate(0,0)"><path fill-rule="evenodd" d="M9 0L9 1L10 1L10 2L8 2L8 3L9 3L9 4L10 4L10 5L9 5L9 6L8 6L8 8L4 8L4 9L9 9L9 8L10 8L10 10L9 10L9 11L10 11L10 10L12 10L12 8L14 8L14 9L20 9L20 10L23 10L23 9L24 9L24 10L25 10L25 11L21 11L21 12L20 12L20 11L18 11L18 10L16 10L16 11L15 11L15 12L17 12L17 13L16 13L16 14L19 14L19 13L20 13L20 14L21 14L21 15L19 15L19 17L21 17L21 18L22 18L22 19L21 19L21 20L19 20L19 18L18 18L18 15L17 15L17 16L16 16L16 15L15 15L15 14L14 14L14 13L13 13L13 12L12 12L12 11L11 11L11 12L12 12L12 13L11 13L11 15L12 15L12 16L9 16L9 17L7 17L7 16L6 16L6 15L8 15L8 13L9 13L9 14L10 14L10 13L9 13L9 12L5 12L5 11L8 11L8 10L5 10L5 11L4 11L4 10L3 10L3 8L0 8L0 12L2 12L2 13L3 13L3 14L4 14L4 15L5 15L5 19L4 19L4 20L2 20L2 19L3 19L3 18L4 18L4 16L3 16L3 15L1 15L1 13L0 13L0 15L1 15L1 16L0 16L0 18L1 18L1 19L0 19L0 21L1 21L1 22L0 22L0 23L1 23L1 24L0 24L0 25L1 25L1 24L2 24L2 25L4 25L4 23L5 23L5 22L6 22L6 23L7 23L7 24L5 24L5 25L7 25L7 24L8 24L8 29L9 29L9 30L8 30L8 33L12 33L12 32L14 32L14 33L18 33L18 32L19 32L19 33L22 33L22 31L23 31L23 33L28 33L28 32L30 32L30 31L29 31L29 29L30 29L30 28L29 28L29 27L30 27L30 26L29 26L29 24L25 24L25 23L26 23L26 22L27 22L27 20L26 20L26 19L30 19L30 18L31 18L31 21L32 21L32 22L31 22L31 24L32 24L32 23L33 23L33 20L32 20L32 19L33 19L33 16L32 16L32 15L33 15L33 12L32 12L32 11L33 11L33 9L32 9L32 11L31 11L31 12L32 12L32 14L31 14L31 13L30 13L30 14L29 14L29 16L30 16L30 14L31 14L31 17L30 17L30 18L27 18L27 17L28 17L28 16L27 16L27 15L26 15L26 14L27 14L27 12L26 12L26 10L27 10L27 11L29 11L29 12L30 12L30 11L29 11L29 10L31 10L31 8L30 8L30 9L29 9L29 10L27 10L27 8L25 8L25 6L24 6L24 2L25 2L25 1L24 1L24 0L23 0L23 1L21 1L21 2L23 2L23 3L22 3L22 4L23 4L23 6L22 6L22 7L21 7L21 6L20 6L20 3L18 3L18 4L17 4L17 2L20 2L20 0L19 0L19 1L17 1L17 0L15 0L15 2L16 2L16 3L15 3L15 6L14 6L14 7L13 7L13 6L12 6L12 8L11 8L11 6L10 6L10 5L11 5L11 4L12 4L12 3L13 3L13 2L14 2L14 1L13 1L13 0L12 0L12 1L10 1L10 0ZM11 2L11 3L12 3L12 2ZM17 5L17 7L18 7L18 6L19 6L19 8L20 8L20 6L19 6L19 5ZM9 6L9 7L10 7L10 6ZM15 6L15 8L16 8L16 6ZM23 6L23 7L22 7L22 9L23 9L23 8L24 8L24 6ZM1 9L1 11L2 11L2 12L3 12L3 11L2 11L2 9ZM13 10L13 11L14 11L14 10ZM4 12L4 14L5 14L5 15L6 15L6 14L7 14L7 13L5 13L5 12ZM18 12L18 13L19 13L19 12ZM22 12L22 13L23 13L23 15L24 15L24 16L22 16L22 18L23 18L23 20L22 20L22 21L21 21L21 22L20 22L20 21L19 21L19 20L18 20L18 21L17 21L17 22L16 22L16 20L15 20L15 19L16 19L16 17L15 17L15 18L14 18L14 16L12 16L12 18L11 18L11 17L9 17L9 18L10 18L10 19L9 19L9 20L8 20L8 18L7 18L7 17L6 17L6 18L7 18L7 19L6 19L6 20L8 20L8 21L6 21L6 22L9 22L9 21L10 21L10 23L11 23L11 24L9 24L9 23L8 23L8 24L9 24L9 29L10 29L10 30L9 30L9 32L12 32L12 31L10 31L10 30L11 30L11 29L12 29L12 28L13 28L13 29L14 29L14 30L13 30L13 31L14 31L14 30L15 30L15 32L16 32L16 30L17 30L17 31L18 31L18 30L19 30L19 32L20 32L20 31L22 31L22 30L20 30L20 29L19 29L19 28L21 28L21 27L23 27L23 28L22 28L22 29L24 29L24 27L23 27L23 26L24 26L24 24L23 24L23 23L24 23L24 22L25 22L25 21L23 21L23 20L24 20L24 19L26 19L26 17L25 17L25 16L26 16L26 15L24 15L24 12ZM13 14L13 15L14 15L14 14ZM1 16L1 17L2 17L2 16ZM24 17L24 18L25 18L25 17ZM31 17L31 18L32 18L32 17ZM13 18L13 19L14 19L14 18ZM17 18L17 19L18 19L18 18ZM11 19L11 20L10 20L10 21L11 21L11 23L12 23L12 24L11 24L11 25L10 25L10 28L12 28L12 27L11 27L11 26L12 26L12 24L14 24L14 26L13 26L13 27L14 27L14 26L15 26L15 24L16 24L16 26L18 26L18 22L17 22L17 23L15 23L15 22L14 22L14 21L13 21L13 20L12 20L12 19ZM1 20L1 21L2 21L2 20ZM4 20L4 21L3 21L3 22L1 22L1 23L2 23L2 24L3 24L3 23L4 23L4 22L5 22L5 20ZM11 20L11 21L12 21L12 20ZM13 22L13 23L14 23L14 22ZM21 22L21 23L20 23L20 24L19 24L19 25L20 25L20 26L21 26L21 25L23 25L23 24L22 24L22 22ZM28 22L28 23L29 23L29 22ZM25 25L25 28L28 28L28 25ZM31 25L31 27L33 27L33 25ZM26 26L26 27L27 27L27 26ZM16 27L16 28L15 28L15 29L17 29L17 30L18 30L18 27ZM31 28L31 29L32 29L32 31L31 31L31 33L33 33L33 32L32 32L32 31L33 31L33 29L32 29L32 28ZM25 29L25 30L24 30L24 31L25 31L25 32L27 32L27 29ZM0 0L0 7L7 7L7 0ZM1 1L1 6L6 6L6 1ZM2 2L2 5L5 5L5 2ZM26 0L26 7L33 7L33 0ZM27 1L27 6L32 6L32 1ZM28 2L28 5L31 5L31 2ZM0 26L0 33L7 33L7 26ZM1 27L1 32L6 32L6 27ZM2 28L2 31L5 31L5 28Z" fill="#000000"/></g></g></svg>
