<?xml version="1.0" encoding="UTF-8"?>
<svg xmlns="http://www.w3.org/2000/svg" version="1.1" width="113" height="113" viewBox="0 0 113 113"><rect x="0" y="0" width="113" height="113" fill="#ffffff"/><g transform="scale(3.424)"><g transform="translate(0,0)"><path fill-rule="evenodd" d="M8 0L8 4L10 4L10 3L11 3L11 4L12 4L12 2L11 2L11 0ZM12 0L12 1L14 1L14 3L13 3L13 5L11 5L11 6L10 6L10 7L9 7L9 5L8 5L8 7L9 7L9 8L10 8L10 7L11 7L11 6L12 6L12 8L11 8L11 9L7 9L7 8L4 8L4 9L3 9L3 10L2 10L2 8L0 8L0 9L1 9L1 10L0 10L0 12L2 12L2 11L3 11L3 13L2 13L2 14L3 14L3 13L4 13L4 12L6 12L6 13L5 13L5 14L6 14L6 15L5 15L5 18L3 18L3 17L4 17L4 16L2 16L2 15L1 15L1 14L0 14L0 17L2 17L2 18L0 18L0 19L1 19L1 20L2 20L2 22L3 22L3 21L5 21L5 22L4 22L4 23L3 23L3 24L5 24L5 25L7 25L7 24L8 24L8 23L10 23L10 24L9 24L9 25L8 25L8 26L9 26L9 27L8 27L8 29L9 29L9 30L11 30L11 29L9 29L9 28L10 28L10 27L11 27L11 28L12 28L12 29L13 29L13 30L15 30L15 31L14 31L14 32L13 32L13 31L12 31L12 32L11 32L11 31L10 31L10 33L12 33L12 32L13 32L13 33L16 33L16 32L15 32L15 31L17 31L17 33L18 33L18 32L20 32L20 33L25 33L25 32L26 32L26 33L29 33L29 32L30 32L30 31L31 31L31 29L30 29L30 28L29 28L29 26L30 26L30 27L31 27L31 28L32 28L32 24L31 24L31 25L29 25L29 23L32 23L32 22L31 22L31 21L29 21L29 18L30 18L30 19L32 19L32 18L30 18L30 17L29 17L29 16L30 16L30 15L32 15L32 14L30 14L30 13L29 13L29 12L30 12L30 11L31 11L31 10L28 10L28 8L27 8L27 10L26 10L26 9L25 9L25 5L24 5L24 3L25 3L25 2L24 2L24 3L23 3L23 4L22 4L22 5L19 5L19 2L20 2L20 3L22 3L22 2L23 2L23 1L24 1L24 0L22 0L22 2L21 2L21 1L19 1L19 2L17 2L17 1L16 1L16 0L15 0L15 1L14 1L14 0ZM15 1L15 2L16 2L16 1ZM9 2L9 3L10 3L10 2ZM14 3L14 5L13 5L13 8L12 8L12 9L11 9L11 10L9 10L9 11L8 11L8 10L7 10L7 9L4 9L4 10L3 10L3 11L6 11L6 12L7 12L7 13L6 13L6 14L7 14L7 15L6 15L6 16L8 16L8 17L6 17L6 18L5 18L5 19L4 19L4 20L5 20L5 21L6 21L6 22L5 22L5 23L6 23L6 24L7 24L7 23L8 23L8 22L10 22L10 23L11 23L11 24L10 24L10 26L12 26L12 25L13 25L13 26L15 26L15 25L17 25L17 26L16 26L16 27L14 27L14 29L15 29L15 28L16 28L16 30L18 30L18 31L20 31L20 30L22 30L22 29L20 29L20 28L21 28L21 27L20 27L20 26L21 26L21 25L20 25L20 24L19 24L19 23L20 23L20 22L21 22L21 23L23 23L23 21L22 21L22 22L21 22L21 21L20 21L20 20L21 20L21 19L20 19L20 14L21 14L21 15L22 15L22 16L23 16L23 17L21 17L21 18L23 18L23 17L24 17L24 18L25 18L25 21L26 21L26 22L27 22L27 21L28 21L28 22L29 22L29 21L28 21L28 18L29 18L29 17L28 17L28 18L27 18L27 17L26 17L26 16L25 16L25 13L26 13L26 14L27 14L27 13L28 13L28 15L27 15L27 16L28 16L28 15L30 15L30 14L29 14L29 13L28 13L28 10L27 10L27 11L25 11L25 13L24 13L24 12L23 12L23 10L22 10L22 9L20 9L20 8L19 8L19 12L18 12L18 13L17 13L17 14L16 14L16 15L17 15L17 14L19 14L19 15L18 15L18 17L17 17L17 16L16 16L16 17L17 17L17 18L18 18L18 19L20 19L20 20L18 20L18 21L19 21L19 23L18 23L18 22L16 22L16 24L15 24L15 25L13 25L13 24L14 24L14 23L15 23L15 22L13 22L13 21L12 21L12 20L13 20L13 19L12 19L12 20L10 20L10 18L12 18L12 17L13 17L13 18L15 18L15 17L13 17L13 16L14 16L14 15L15 15L15 14L13 14L13 13L12 13L12 12L13 12L13 11L12 11L12 12L11 12L11 13L10 13L10 11L11 11L11 10L12 10L12 9L13 9L13 10L14 10L14 9L13 9L13 8L16 8L16 10L17 10L17 11L16 11L16 12L15 12L15 11L14 11L14 13L16 13L16 12L17 12L17 11L18 11L18 10L17 10L17 7L18 7L18 6L17 6L17 7L16 7L16 5L17 5L17 4L18 4L18 3L16 3L16 5L15 5L15 3ZM14 5L14 7L15 7L15 5ZM22 5L22 6L21 6L21 7L22 7L22 6L23 6L23 8L24 8L24 5ZM19 6L19 7L20 7L20 6ZM29 8L29 9L33 9L33 8ZM24 9L24 10L25 10L25 9ZM6 10L6 11L7 11L7 10ZM20 10L20 11L21 11L21 12L20 12L20 13L22 13L22 15L23 15L23 16L24 16L24 13L23 13L23 12L22 12L22 10ZM26 12L26 13L27 13L27 12ZM31 12L31 13L33 13L33 12ZM9 13L9 14L10 14L10 16L9 16L9 15L8 15L8 16L9 16L9 18L8 18L8 19L7 19L7 18L6 18L6 19L5 19L5 20L6 20L6 21L10 21L10 20L9 20L9 18L10 18L10 16L11 16L11 17L12 17L12 16L13 16L13 15L12 15L12 16L11 16L11 14L10 14L10 13ZM32 16L32 17L33 17L33 16ZM18 17L18 18L19 18L19 17ZM2 18L2 20L3 20L3 18ZM6 19L6 20L7 20L7 19ZM14 19L14 21L17 21L17 19L16 19L16 20L15 20L15 19ZM22 19L22 20L24 20L24 19ZM26 20L26 21L27 21L27 20ZM32 20L32 21L33 21L33 20ZM0 21L0 22L1 22L1 21ZM6 22L6 23L7 23L7 22ZM24 22L24 23L25 23L25 22ZM12 23L12 24L11 24L11 25L12 25L12 24L13 24L13 23ZM17 23L17 25L18 25L18 26L17 26L17 29L18 29L18 30L19 30L19 29L18 29L18 27L19 27L19 28L20 28L20 27L19 27L19 25L18 25L18 23ZM26 23L26 24L28 24L28 23ZM0 24L0 25L2 25L2 24ZM22 24L22 28L23 28L23 31L24 31L24 30L25 30L25 31L26 31L26 32L27 32L27 31L28 31L28 32L29 32L29 31L28 31L28 29L27 29L27 31L26 31L26 29L24 29L24 26L23 26L23 25L24 25L24 24ZM25 25L25 28L28 28L28 25ZM26 26L26 27L27 27L27 26ZM12 27L12 28L13 28L13 27ZM8 31L8 33L9 33L9 31ZM32 32L32 33L33 33L33 32ZM0 0L0 7L7 7L7 0ZM1 1L1 6L6 6L6 1ZM2 2L2 5L5 5L5 2ZM26 0L26 7L33 7L33 0ZM27 1L27 6L32 6L32 1ZM28 2L28 5L31 5L31 2ZM0 26L0 33L7 33L7 26ZM1 27L1 32L6 32L6 27ZM2 28L2 31L5 31L5 28Z" fill="#000000"/></g></g></svg>
