<?xml version="1.0" encoding="UTF-8"?>
<svg xmlns="http://www.w3.org/2000/svg" version="1.1" width="113" height="113" viewBox="0 0 113 113"><rect x="0" y="0" width="113" height="113" fill="#ffffff"/><g transform="scale(3.424)"><g transform="translate(0,0)"><path fill-rule="evenodd" d="M10 0L10 2L11 2L11 0ZM12 0L12 1L13 1L13 2L12 2L12 4L14 4L14 5L11 5L11 6L10 6L10 4L11 4L11 3L8 3L8 4L9 4L9 5L8 5L8 7L9 7L9 8L6 8L6 9L7 9L7 10L6 10L6 11L7 11L7 12L5 12L5 8L0 8L0 10L1 10L1 11L2 11L2 12L0 12L0 14L1 14L1 13L2 13L2 14L3 14L3 13L2 13L2 12L3 12L3 11L4 11L4 12L5 12L5 13L4 13L4 18L5 18L5 19L7 19L7 18L8 18L8 17L9 17L9 16L10 16L10 17L12 17L12 18L13 18L13 19L12 19L12 21L13 21L13 20L14 20L14 21L16 21L16 22L15 22L15 23L14 23L14 24L15 24L15 25L12 25L12 23L13 23L13 22L11 22L11 24L10 24L10 25L9 25L9 23L7 23L7 22L8 22L8 21L9 21L9 22L10 22L10 21L11 21L11 18L10 18L10 19L9 19L9 20L6 20L6 21L7 21L7 22L5 22L5 24L4 24L4 23L2 23L2 25L5 25L5 24L6 24L6 25L8 25L8 27L9 27L9 26L10 26L10 29L9 29L9 28L8 28L8 33L9 33L9 32L10 32L10 33L12 33L12 31L13 31L13 30L10 30L10 29L11 29L11 25L12 25L12 26L13 26L13 27L12 27L12 29L13 29L13 28L14 28L14 29L15 29L15 28L14 28L14 27L16 27L16 28L17 28L17 29L18 29L18 31L19 31L19 33L20 33L20 32L22 32L22 33L26 33L26 31L27 31L27 32L28 32L28 33L29 33L29 31L27 31L27 30L33 30L33 28L32 28L32 26L33 26L33 24L32 24L32 26L31 26L31 25L29 25L29 24L31 24L31 23L32 23L32 22L33 22L33 21L32 21L32 20L31 20L31 19L32 19L32 18L33 18L33 17L32 17L32 16L31 16L31 15L32 15L32 14L33 14L33 13L31 13L31 15L30 15L30 13L29 13L29 12L27 12L27 13L26 13L26 12L24 12L24 13L23 13L23 10L24 10L24 9L26 9L26 10L25 10L25 11L27 11L27 9L28 9L28 8L27 8L27 9L26 9L26 8L24 8L24 7L25 7L25 5L24 5L24 4L25 4L25 3L24 3L24 2L23 2L23 1L24 1L24 0L19 0L19 1L21 1L21 2L20 2L20 3L22 3L22 4L18 4L18 3L16 3L16 2L17 2L17 1L15 1L15 0L14 0L14 1L13 1L13 0ZM8 1L8 2L9 2L9 1ZM14 1L14 2L13 2L13 3L14 3L14 4L15 4L15 5L17 5L17 4L15 4L15 1ZM23 3L23 4L24 4L24 3ZM19 5L19 7L18 7L18 6L17 6L17 8L16 8L16 6L15 6L15 8L14 8L14 6L13 6L13 7L12 7L12 6L11 6L11 7L12 7L12 9L11 9L11 8L10 8L10 9L8 9L8 10L9 10L9 12L7 12L7 13L5 13L5 17L6 17L6 18L7 18L7 17L6 17L6 16L8 16L8 13L9 13L9 14L13 14L13 15L12 15L12 17L15 17L15 18L16 18L16 19L17 19L17 20L16 20L16 21L17 21L17 20L18 20L18 21L19 21L19 19L20 19L20 21L21 21L21 23L22 23L22 24L20 24L20 25L21 25L21 26L23 26L23 25L24 25L24 24L25 24L25 23L24 23L24 22L23 22L23 21L22 21L22 20L21 20L21 19L20 19L20 18L21 18L21 17L22 17L22 19L24 19L24 20L26 20L26 21L25 21L25 22L26 22L26 21L27 21L27 22L28 22L28 23L26 23L26 24L29 24L29 23L31 23L31 22L29 22L29 21L31 21L31 20L29 20L29 17L30 17L30 19L31 19L31 16L30 16L30 15L27 15L27 16L26 16L26 17L27 17L27 18L25 18L25 16L24 16L24 14L26 14L26 13L24 13L24 14L21 14L21 15L23 15L23 17L22 17L22 16L20 16L20 14L19 14L19 12L20 12L20 13L22 13L22 12L21 12L21 11L20 11L20 10L18 10L18 11L17 11L17 8L19 8L19 7L20 7L20 6L21 6L21 7L22 7L22 8L20 8L20 9L22 9L22 8L23 8L23 7L24 7L24 5ZM9 6L9 7L10 7L10 6ZM22 6L22 7L23 7L23 6ZM29 8L29 9L30 9L30 8ZM31 8L31 10L33 10L33 9L32 9L32 8ZM1 9L1 10L2 10L2 9ZM10 9L10 11L11 11L11 9ZM12 9L12 10L13 10L13 11L12 11L12 13L13 13L13 12L14 12L14 13L16 13L16 14L15 14L15 15L14 15L14 16L16 16L16 15L17 15L17 13L18 13L18 12L17 12L17 11L16 11L16 10L14 10L14 9ZM14 11L14 12L15 12L15 11ZM30 11L30 12L31 12L31 11ZM9 12L9 13L11 13L11 12ZM27 13L27 14L29 14L29 13ZM6 14L6 15L7 15L7 14ZM2 15L2 16L3 16L3 15ZM18 15L18 16L17 16L17 17L16 17L16 18L17 18L17 17L18 17L18 19L19 19L19 18L20 18L20 16L19 16L19 15ZM0 16L0 17L1 17L1 16ZM18 16L18 17L19 17L19 16ZM28 16L28 17L29 17L29 16ZM2 17L2 18L3 18L3 17ZM23 17L23 18L24 18L24 17ZM1 19L1 21L0 21L0 25L1 25L1 22L4 22L4 21L5 21L5 20L4 20L4 19ZM14 19L14 20L15 20L15 19ZM3 20L3 21L4 21L4 20ZM9 20L9 21L10 21L10 20ZM27 20L27 21L29 21L29 20ZM18 22L18 23L17 23L17 24L16 24L16 25L15 25L15 26L16 26L16 25L17 25L17 28L18 28L18 29L19 29L19 28L18 28L18 27L20 27L20 29L22 29L22 28L21 28L21 27L20 27L20 26L18 26L18 25L19 25L19 24L18 24L18 23L20 23L20 22ZM22 22L22 23L23 23L23 22ZM6 23L6 24L7 24L7 23ZM17 24L17 25L18 25L18 24ZM25 25L25 28L28 28L28 25ZM26 26L26 27L27 27L27 26ZM30 26L30 27L31 27L31 26ZM23 28L23 30L22 30L22 32L25 32L25 31L26 31L26 30L27 30L27 29L26 29L26 30L25 30L25 29L24 29L24 28ZM30 28L30 29L31 29L31 28ZM15 30L15 31L14 31L14 32L15 32L15 31L16 31L16 32L17 32L17 33L18 33L18 32L17 32L17 31L16 31L16 30ZM19 30L19 31L20 31L20 30ZM23 30L23 31L24 31L24 30ZM10 31L10 32L11 32L11 31ZM30 31L30 32L31 32L31 33L32 33L32 32L31 32L31 31ZM0 0L0 7L7 7L7 0ZM1 1L1 6L6 6L6 1ZM2 2L2 5L5 5L5 2ZM26 0L26 7L33 7L33 0ZM27 1L27 6L32 6L32 1ZM28 2L28 5L31 5L31 2ZM0 26L0 33L7 33L7 26ZM1 27L1 32L6 32L6 27ZM2 28L2 31L5 31L5 28Z" fill="#000000"/></g></g></svg>
