<?xml version="1.0" encoding="UTF-8"?>
<svg xmlns="http://www.w3.org/2000/svg" version="1.1" width="113" height="113" viewBox="0 0 113 113"><rect x="0" y="0" width="113" height="113" fill="#ffffff"/><g transform="scale(3.424)"><g transform="translate(0,0)"><path fill-rule="evenodd" d="M9 0L9 1L10 1L10 2L8 2L8 3L9 3L9 4L10 4L10 5L9 5L9 6L8 6L8 8L4 8L4 9L3 9L3 8L0 8L0 11L1 11L1 12L0 12L0 14L2 14L2 15L0 15L0 16L1 16L1 17L2 17L2 18L3 18L3 19L0 19L0 20L4 20L4 21L5 21L5 19L7 19L7 18L3 18L3 17L4 17L4 16L5 16L5 12L4 12L4 11L3 11L3 10L6 10L6 11L7 11L7 12L6 12L6 13L7 13L7 14L6 14L6 15L7 15L7 14L9 14L9 15L8 15L8 16L9 16L9 17L8 17L8 18L9 18L9 19L8 19L8 21L7 21L7 20L6 20L6 21L7 21L7 22L6 22L6 23L7 23L7 22L8 22L8 21L9 21L9 23L8 23L8 24L9 24L9 25L8 25L8 29L9 29L9 28L10 28L10 27L11 27L11 28L12 28L12 29L10 29L10 30L8 30L8 33L9 33L9 31L10 31L10 33L12 33L12 32L14 32L14 33L18 33L18 32L19 32L19 33L22 33L22 31L23 31L23 33L28 33L28 32L30 32L30 31L29 31L29 29L30 29L30 28L29 28L29 27L30 27L30 26L29 26L29 24L25 24L25 23L26 23L26 22L27 22L27 20L26 20L26 19L30 19L30 18L31 18L31 21L32 21L32 22L31 22L31 24L32 24L32 23L33 23L33 20L32 20L32 19L33 19L33 16L32 16L32 15L33 15L33 12L32 12L32 11L33 11L33 9L32 9L32 11L31 11L31 12L32 12L32 14L31 14L31 13L30 13L30 14L29 14L29 16L30 16L30 14L31 14L31 17L30 17L30 18L27 18L27 17L28 17L28 16L27 16L27 15L26 15L26 14L27 14L27 12L26 12L26 10L27 10L27 11L29 11L29 12L30 12L30 11L29 11L29 10L31 10L31 8L30 8L30 9L29 9L29 10L27 10L27 8L25 8L25 6L24 6L24 2L25 2L25 1L24 1L24 0L23 0L23 1L21 1L21 2L23 2L23 3L22 3L22 4L23 4L23 6L22 6L22 7L21 7L21 6L20 6L20 3L18 3L18 4L17 4L17 2L20 2L20 0L19 0L19 1L17 1L17 0L15 0L15 2L16 2L16 3L15 3L15 5L13 5L13 6L12 6L12 8L11 8L11 6L10 6L10 5L11 5L11 4L12 4L12 3L13 3L13 2L14 2L14 1L13 1L13 0L12 0L12 1L10 1L10 0ZM11 2L11 3L12 3L12 2ZM17 5L17 7L18 7L18 6L19 6L19 8L20 8L20 6L19 6L19 5ZM9 6L9 7L10 7L10 6ZM13 6L13 7L14 7L14 6ZM15 6L15 8L16 8L16 6ZM23 6L23 7L22 7L22 9L23 9L23 10L20 10L20 9L14 9L14 8L12 8L12 10L10 10L10 8L9 8L9 9L6 9L6 10L8 10L8 13L9 13L9 14L10 14L10 15L11 15L11 16L10 16L10 19L12 19L12 20L9 20L9 21L12 21L12 20L13 20L13 21L14 21L14 22L13 22L13 23L14 23L14 22L15 22L15 23L17 23L17 22L18 22L18 26L16 26L16 24L15 24L15 26L14 26L14 24L12 24L12 23L9 23L9 24L10 24L10 25L9 25L9 26L10 26L10 25L11 25L11 24L12 24L12 26L11 26L11 27L12 27L12 28L13 28L13 29L14 29L14 30L13 30L13 31L14 31L14 30L15 30L15 32L16 32L16 30L17 30L17 31L18 31L18 30L19 30L19 32L20 32L20 31L22 31L22 30L20 30L20 29L19 29L19 28L21 28L21 27L23 27L23 28L22 28L22 29L24 29L24 27L23 27L23 26L24 26L24 24L23 24L23 23L24 23L24 22L25 22L25 21L23 21L23 20L24 20L24 19L26 19L26 17L25 17L25 16L26 16L26 15L24 15L24 12L22 12L22 13L23 13L23 15L24 15L24 16L22 16L22 18L21 18L21 17L19 17L19 15L21 15L21 14L20 14L20 13L19 13L19 12L18 12L18 13L19 13L19 14L16 14L16 13L17 13L17 12L15 12L15 11L16 11L16 10L18 10L18 11L20 11L20 12L21 12L21 11L25 11L25 10L24 10L24 9L23 9L23 8L24 8L24 6ZM2 9L2 10L3 10L3 9ZM9 10L9 11L10 11L10 10ZM13 10L13 11L14 11L14 10ZM11 11L11 12L12 12L12 13L11 13L11 15L12 15L12 16L11 16L11 18L12 18L12 16L14 16L14 18L13 18L13 19L14 19L14 18L15 18L15 17L16 17L16 19L15 19L15 20L16 20L16 22L17 22L17 21L18 21L18 20L19 20L19 21L20 21L20 22L21 22L21 23L20 23L20 24L19 24L19 25L20 25L20 26L21 26L21 25L23 25L23 24L22 24L22 22L21 22L21 21L22 21L22 20L23 20L23 18L22 18L22 19L21 19L21 20L19 20L19 18L18 18L18 15L17 15L17 16L16 16L16 15L15 15L15 14L14 14L14 13L13 13L13 12L12 12L12 11ZM1 12L1 13L2 13L2 14L3 14L3 15L2 15L2 16L4 16L4 14L3 14L3 12ZM13 14L13 15L14 15L14 14ZM6 16L6 17L7 17L7 16ZM24 17L24 18L25 18L25 17ZM31 17L31 18L32 18L32 17ZM17 18L17 19L18 19L18 18ZM1 21L1 22L0 22L0 23L1 23L1 24L0 24L0 25L1 25L1 24L2 24L2 23L4 23L4 24L3 24L3 25L5 25L5 23L4 23L4 22L2 22L2 21ZM1 22L1 23L2 23L2 22ZM28 22L28 23L29 23L29 22ZM6 24L6 25L7 25L7 24ZM25 25L25 28L28 28L28 25ZM31 25L31 27L33 27L33 25ZM13 26L13 27L14 27L14 26ZM26 26L26 27L27 27L27 26ZM16 27L16 28L15 28L15 29L17 29L17 30L18 30L18 27ZM31 28L31 29L32 29L32 31L31 31L31 33L33 33L33 32L32 32L32 31L33 31L33 29L32 29L32 28ZM25 29L25 30L24 30L24 31L25 31L25 32L27 32L27 29ZM10 30L10 31L11 31L11 32L12 32L12 31L11 31L11 30ZM0 0L0 7L7 7L7 0ZM1 1L1 6L6 6L6 1ZM2 2L2 5L5 5L5 2ZM26 0L26 7L33 7L33 0ZM27 1L27 6L32 6L32 1ZM28 2L28 5L31 5L31 2ZM0 26L0 33L7 33L7 26ZM1 27L1 32L6 32L6 27ZM2 28L2 31L5 31L5 28Z" fill="#000000"/></g></g></svg>
